<svg width="535.170898" height="555.993652" viewBox="0 0 535.171 555.994" fill="none" xmlns="http://www.w3.org/2000/svg" xmlns:xlink="http://www.w3.org/1999/xlink">
	<desc>
			Created with Pixso.
	</desc>
	<defs/>
	<path id="Vector" d="M267.586 0C415.389 0 535.171 124.415 535.171 277.934C535.171 431.453 415.389 555.868 267.586 555.868C119.782 555.868 0 431.453 0 277.934C0 124.415 119.782 0 267.586 0ZM267.586 448.192C358.023 448.192 431.504 371.994 431.504 277.934C431.504 183.998 358.144 107.676 267.586 107.676C177.027 107.676 103.667 183.874 103.667 277.934C103.667 371.87 177.147 448.192 267.586 448.192Z" fill="#FFFFFF" fill-opacity="0.100000" fill-rule="nonzero"/>
	<path id="Vector" d="M267.589 0C288.995 0 309.681 2.62305 329.645 7.61963C309.319 12.2417 288.875 18.9868 268.791 28.1055C133.255 89.3135 61.9385 230.967 109.562 344.513C157.066 457.936 305.472 500.281 441.008 439.073C466.022 427.706 488.873 413.716 509.197 397.477C466.144 491.163 374.143 555.994 267.589 555.994C119.785 555.994 0.00292969 431.579 0.00292969 278.06C0.00292969 124.539 119.785 0 267.589 0Z" fill="#FFFFFF" fill-opacity="0.100000" fill-rule="nonzero"/>
	<path id="Vector" d="M246.179 462.56C393.981 462.56 513.764 338.145 513.764 184.625C513.764 179.004 513.523 173.383 513.283 167.761C527.354 201.488 535.171 238.838 535.171 277.936C535.171 431.456 415.389 555.87 267.585 555.87C125.193 555.87 8.89941 440.449 0.480469 294.8C41.6113 393.481 136.139 462.56 246.179 462.56Z" fill="#FFFFFF" fill-opacity="0.100000" fill-rule="nonzero"/>
</svg>
