<svg width="157" height="48" viewBox="0 0 157 48" fill="none" xmlns="http://www.w3.org/2000/svg">
<g clip-path="url(#clip0_781_45187)">
<path d="M10.2473 12.9717C9.31157 14.6578 8.79688 16.5718 8.79688 18.6226V35.5756C8.79688 42.1836 14.2711 47.5612 21.0555 47.5612H23.1142C23.8628 43.0495 25.1728 38.7657 27.0444 34.7553C22.7866 26.5067 17.0785 19.1695 10.2473 12.9717Z" fill="#F2CA30"/>
<path d="M76.4986 37.125H71.4922V38.2188H73.317V45.3737H74.627V38.2188H76.4986V37.125Z" fill="#5A7D89"/>
<path d="M78.3238 38.9023C77.622 38.9023 77.0605 39.1758 76.6395 39.7227C76.2652 40.2696 76.0312 41.1354 76.0312 42.2747C76.0312 44.4622 76.8734 45.5559 78.511 45.5559C78.8385 45.5559 79.166 45.5104 79.3999 45.4193C79.6338 45.3281 79.8209 45.2369 79.9612 45.1914L80.008 45.1458L79.7741 44.0976L79.6338 44.1888C79.3063 44.371 78.9789 44.4622 78.6982 44.4622C78.4174 44.4622 78.1835 44.4166 77.9964 44.3255C77.5752 44.0976 77.3413 43.5507 77.3413 42.6849H80.2887V42.5937C80.2887 42.5026 80.2887 42.4115 80.2887 42.3203V42.0469C80.2887 41.0898 80.1484 40.3607 79.8209 39.8138C79.5402 39.1758 79.0257 38.9023 78.3238 38.9023ZM78.2771 39.9961C78.5578 39.9961 78.745 40.1328 78.8385 40.4062C78.9321 40.6797 78.9789 41.0898 79.0257 41.5911H77.3881C77.4349 41.1354 77.5285 40.7252 77.6688 40.4518C77.7624 40.1328 77.9964 39.9961 78.2771 39.9961Z" fill="#5A7D89"/>
<path d="M82.1609 40.4513C82.1609 41.864 82.0674 42.8211 81.8335 43.4136C81.7399 43.687 81.5995 43.9148 81.4124 44.0971C81.2721 44.2338 80.9914 44.3706 80.7107 44.4161H80.5703L80.7107 45.5099H80.8042C81.2721 45.5099 81.6931 45.3732 82.0206 45.1453C82.957 44.5073 83.4249 43.0034 83.4249 40.6336V40.1323H84.4541V45.3732H85.7172V39.0386H82.1609V40.4513Z" fill="#5A7D89"/>
<path d="M89.1322 38.9023C88.4305 38.9023 87.8691 39.1758 87.448 39.7227C87.0738 40.2696 86.8398 41.1354 86.8398 42.2747C86.8398 44.4622 87.6819 45.5559 89.3193 45.5559C89.6468 45.5559 89.9743 45.5104 90.2082 45.4193C90.4421 45.3281 90.6293 45.2369 90.7696 45.1914L90.8164 45.1458L90.5825 44.0976L90.4421 44.1888C90.1146 44.371 89.7872 44.4622 89.5065 44.4622C89.2258 44.4622 88.9919 44.4166 88.8047 44.3255C88.3837 44.0976 88.1498 43.5507 88.1498 42.6849H91.0971V42.5937C91.0971 42.5026 91.0971 42.4115 91.0971 42.3203V42.0469C91.0971 41.0898 90.9567 40.3607 90.6293 39.8138C90.3486 39.1758 89.8339 38.9023 89.1322 38.9023ZM89.0854 39.9961C89.3661 39.9961 89.5532 40.1328 89.6468 40.4062C89.7404 40.6797 89.7872 41.0898 89.8339 41.5911H88.1965C88.2433 41.1354 88.3369 40.7252 88.4772 40.4518C88.5708 40.1328 88.7579 39.9961 89.0854 39.9961Z" fill="#5A7D89"/>
<path d="M96.1513 44.3706C95.6367 43.4591 95.1213 42.6388 94.5132 41.9552C95.0745 41.226 95.6835 40.3146 96.3385 39.2209L96.432 39.0386H95.0745L95.0278 39.0841C94.9342 39.2665 94.7471 39.5855 94.4196 40.0868C94.1857 40.4969 93.8582 40.907 93.5307 41.4084V39.0386H92.2676V45.3732H93.5307V42.5932C93.6243 42.6844 93.7178 42.8211 93.8114 42.9578C94.4196 43.8237 94.8874 44.5985 95.2617 45.3276L95.3085 45.4187H96.666L96.5724 45.2365C96.432 44.963 96.2917 44.6896 96.1513 44.3706Z" fill="#5A7D89"/>
<path d="M99.0052 38.9023C98.631 38.9023 98.2567 38.9935 97.976 39.1302C97.1339 39.5859 96.7129 40.6341 96.7129 42.1836C96.7129 43.1861 96.9 44.0065 97.2743 44.5534C97.6953 45.1914 98.2567 45.5104 99.052 45.5104C99.8006 45.5104 100.409 45.1914 100.783 44.5534C100.97 44.2799 101.11 43.9154 101.204 43.5051C101.298 43.095 101.345 42.6849 101.345 42.1836C101.345 41.181 101.157 40.3607 100.783 39.8138C100.362 39.2213 99.8006 38.9023 99.0052 38.9023ZM99.0052 40.0417C99.6602 40.0417 99.9877 40.7708 99.9877 42.2291C99.9877 43.6875 99.6602 44.4166 99.0052 44.4166C98.3503 44.4166 98.0228 43.6875 98.0228 42.2291C98.0228 40.7708 98.3503 40.0417 99.0052 40.0417Z" fill="#5A7D89"/>
<path d="M107.66 39.1756V39.0845H106.35L106.303 39.1756C105.882 40.1782 105.508 41.3631 105.087 42.6847C104.713 41.4087 104.291 40.2238 103.87 39.1756L103.823 39.0845H102.513V39.1756C102.326 41.4998 102.186 43.5506 102.186 45.2823V45.4191H103.402V45.2823C103.402 44.9633 103.402 44.3708 103.402 43.4594C103.402 42.6847 103.449 41.8644 103.495 41.0441C103.589 41.3175 103.683 41.6365 103.823 42.0467C104.057 42.8214 104.338 43.6417 104.525 44.5076V44.5987H105.508L105.555 44.5076C105.976 43.0037 106.303 41.8644 106.584 41.0441C106.631 41.5909 106.631 42.2289 106.631 42.9126C106.631 43.3683 106.631 43.7784 106.631 44.1886C106.631 44.5987 106.631 44.9633 106.631 45.2823V45.4191H107.847V45.2823C107.941 43.0037 107.8 40.9529 107.66 39.1756Z" fill="#5A7D89"/>
<path d="M111.779 45.3737H113.089V38.2188H115.428V45.3737H116.738V37.125H111.779V45.3737Z" fill="#5A7D89"/>
<path d="M120.014 38.9023C119.312 38.9023 118.75 39.1758 118.329 39.7227C117.955 40.2696 117.721 41.1354 117.721 42.2747C117.721 44.4622 118.563 45.5559 120.201 45.5559C120.528 45.5559 120.856 45.5104 121.09 45.4193C121.324 45.3281 121.511 45.2369 121.651 45.1914L121.698 45.1458L121.464 44.0976L121.324 44.1888C120.996 44.371 120.669 44.4622 120.388 44.4622C120.107 44.4622 119.873 44.4166 119.686 44.3255C119.265 44.0976 119.031 43.5507 119.031 42.6849H121.979V42.5937C121.979 42.5026 121.979 42.4115 121.979 42.3203V42.0469C121.979 41.0898 121.838 40.3607 121.511 39.8138C121.23 39.1758 120.716 38.9023 120.014 38.9023ZM119.967 39.9961C120.248 39.9961 120.435 40.1328 120.528 40.4062C120.622 40.6797 120.669 41.0898 120.716 41.5911H119.078C119.125 41.1354 119.219 40.7252 119.359 40.4518C119.452 40.1328 119.64 39.9961 119.967 39.9961Z" fill="#5A7D89"/>
<path d="M122.352 40.1779H123.942V45.3732H125.205V40.1779H126.749V39.0386H122.352V40.1779Z" fill="#5A7D89"/>
<path d="M129.324 38.9023C128.623 38.9023 128.06 39.1758 127.639 39.7227C127.265 40.2696 127.031 41.1354 127.031 42.2747C127.031 44.4622 127.873 45.5559 129.512 45.5559C129.839 45.5559 130.166 45.5104 130.4 45.4193C130.634 45.3281 130.821 45.2369 130.962 45.1914L131.009 45.1458L130.775 44.0976L130.634 44.1888C129.979 44.5078 129.324 44.5078 128.997 44.3255C128.576 44.0976 128.342 43.5507 128.342 42.6849H131.196H131.289V42.5937C131.289 42.5026 131.289 42.4115 131.289 42.3203V42.0469C131.289 41.0898 131.149 40.3607 130.821 39.8138C130.541 39.1758 130.026 38.9023 129.324 38.9023ZM129.278 39.9961C129.558 39.9961 129.745 40.1328 129.839 40.4062C129.933 40.6797 129.979 41.0898 130.026 41.5911H128.389C128.436 41.0898 128.529 40.7252 128.669 40.4518C128.763 40.1328 128.95 39.9961 129.278 39.9961Z" fill="#5A7D89"/>
<path d="M135.452 39.1302C135.125 38.9935 134.703 38.9023 134.141 38.9023C133.627 38.9023 133.112 38.9935 132.597 39.2213L132.504 39.2669V47.5612H133.767V45.4193C134.001 45.5104 134.282 45.5559 134.516 45.5559C135.312 45.5559 135.92 45.2825 136.247 44.69C136.575 44.1432 136.762 43.3229 136.762 42.2747C136.762 41.2266 136.575 40.4062 136.154 39.8594C136.06 39.5404 135.779 39.3125 135.452 39.1302ZM135.546 42.2291C135.546 43.0495 135.452 43.6419 135.218 43.9609C135.125 44.0976 134.983 44.2344 134.89 44.2799C134.609 44.4166 134.188 44.4622 133.814 44.2344V40.0417C133.954 39.9961 134.141 39.9961 134.282 39.9961C134.703 39.9961 135.031 40.1328 135.218 40.4974C135.452 40.862 135.546 41.4088 135.546 42.2291Z" fill="#5A7D89"/>
<path d="M140.039 39.4944C139.665 39.4944 139.29 39.54 139.009 39.6767C139.056 39.4944 139.056 39.3121 139.103 39.1754C139.243 38.3551 139.665 37.8538 140.273 37.626C140.507 37.5348 140.694 37.4892 140.975 37.4436L141.864 37.2614L141.677 36.1221L140.694 36.3044C140.367 36.35 140.039 36.4411 139.758 36.5778C139.431 36.7145 139.149 36.8968 138.822 37.1702C138.541 37.4436 138.307 37.8082 138.12 38.264C137.933 38.7197 137.793 39.2665 137.746 39.9045C137.699 40.178 137.699 40.4514 137.699 40.7704C137.699 41.0439 137.699 41.4084 137.699 41.8186C137.699 42.2288 137.746 42.6845 137.793 43.1402C138.027 44.6897 138.775 45.51 139.992 45.51C140.741 45.51 141.302 45.2366 141.677 44.6441C142.051 44.0972 142.191 43.3225 142.191 42.3655C142.191 41.3629 142.004 40.6338 141.63 40.178C141.209 39.7223 140.694 39.4944 140.039 39.4944ZM140.601 44.0061C140.46 44.2796 140.273 44.4162 139.992 44.4162C139.571 44.4162 139.337 44.1884 139.196 43.7327C139.056 43.2313 138.962 42.5478 138.962 41.6363V41.2262C138.962 41.0894 138.962 40.9983 138.962 40.8616C139.243 40.6793 139.571 40.5426 139.899 40.5426C140.226 40.5426 140.46 40.6793 140.601 40.9983C140.741 41.3173 140.834 41.8186 140.834 42.5022C140.834 43.2313 140.741 43.7327 140.601 44.0061Z" fill="#5A7D89"/>
<path d="M145.933 39.1756C145.605 40.725 145.278 42.2289 144.857 43.5962C144.763 43.2772 144.623 42.7758 144.482 42.1834C144.248 41.3175 144.061 40.2694 143.874 39.1756V39.0845H142.564L142.611 39.2212C143.079 41.5909 143.687 43.6417 144.295 45.3735L144.202 45.6013C144.061 45.9203 143.921 46.1482 143.827 46.2849C143.593 46.5584 143.172 46.5127 142.845 46.3761L142.705 46.3305L142.471 47.3786L142.564 47.4242C142.845 47.561 143.126 47.6065 143.406 47.6065C143.921 47.6065 144.389 47.4242 144.716 47.0596C144.997 46.7406 145.324 46.1026 145.652 45.1912C146.4 43.0037 146.962 40.9985 147.337 39.2212L147.384 39.0845H146.12L145.933 39.1756Z" fill="#5A7D89"/>
<path d="M150.893 39.1302C150.565 38.9935 150.144 38.9023 149.583 38.9023C149.068 38.9023 148.507 38.9935 148.039 39.2213L147.945 39.2669V47.5612H149.208V45.4193C149.442 45.5104 149.723 45.5559 149.957 45.5559C150.752 45.5559 151.36 45.2825 151.735 44.69C152.062 44.1432 152.249 43.3229 152.249 42.2747C152.249 41.2266 152.062 40.4062 151.641 39.8594C151.501 39.5404 151.22 39.3125 150.893 39.1302ZM150.986 42.2291C150.986 43.0495 150.893 43.6419 150.659 43.9609C150.565 44.0976 150.425 44.2344 150.331 44.2799C150.097 44.4166 149.63 44.4622 149.255 44.2344V40.0417C149.396 39.9961 149.583 39.9961 149.723 39.9961C150.144 39.9961 150.472 40.1328 150.659 40.4974C150.893 40.862 150.986 41.4088 150.986 42.2291Z" fill="#5A7D89"/>
<path d="M153.232 39.0386V45.3732H154.496V40.1779H156.321V39.0386H153.232Z" fill="#5A7D89"/>
<path d="M86.2775 8.96109C85.4822 8.96109 84.7804 9.14341 84.7336 9.14341L84.5933 9.18897V19.8985C84.2658 20.1719 82.5341 21.4024 78.7913 21.4024C75.9371 21.4024 74.9078 20.5365 74.9078 18.1667V9.14341L74.7675 9.09777C74.7207 9.09777 74.0657 8.91553 73.2234 8.91553C72.4748 8.91553 71.7262 9.09777 71.6794 9.09777L71.5391 9.14341V18.1211C71.5391 21.9493 73.5977 23.7266 77.9491 23.7266C81.5516 23.7266 83.8448 22.6784 84.6401 22.2227V32.6588L84.7804 32.7043C84.8272 32.7043 85.5289 32.8866 86.3243 32.8866C87.0728 32.8866 87.8213 32.7043 87.8681 32.7043L88.0084 32.6588V9.14341L87.8681 9.09777C87.7745 9.09777 87.026 8.96109 86.2775 8.96109Z" fill="#2A5C67"/>
<path d="M98.5827 15.5234C93.9036 15.5234 91.8919 17.1185 91.8919 20.7643V21.3111L92.0323 21.3567C92.0791 21.3567 92.734 21.539 93.4358 21.539C94.1375 21.539 94.7925 21.3567 94.8393 21.3567L94.9796 21.3111V20.7643C94.9796 18.5768 95.962 17.7565 98.5827 17.7565C101.249 17.7565 102.279 18.6223 102.279 20.8554V22.5416L97.9277 22.9974C93.5293 23.453 91.5645 24.9569 91.5645 27.7824V28.2837C91.5645 31.4738 93.2019 33.0233 96.5242 33.0233C99.6119 33.0233 101.53 32.0662 102.279 31.6105V32.7499L102.419 32.7954C102.466 32.7954 103.121 32.9777 103.87 32.9777C104.618 32.9777 105.32 32.7954 105.32 32.7954L105.461 32.7499V20.901C105.507 17.2096 103.309 15.5234 98.5827 15.5234ZM97.5534 30.7446C95.5878 30.7446 94.8393 30.0611 94.8393 28.2382V27.7368C94.8393 26.5519 95.2603 25.4583 98.4891 25.1393L102.279 24.6835V29.1952C101.998 29.5142 100.594 30.7446 97.5534 30.7446Z" fill="#2A5C67"/>
<path d="M116.409 13.2905C119.731 13.2905 121.134 12.1968 121.134 9.59909V9.14341L120.994 9.09777C120.994 9.09777 120.479 8.91553 119.965 8.91553C119.403 8.91553 118.936 9.09777 118.889 9.09777L118.748 9.14341V9.64465C118.748 10.8295 118.374 11.5131 116.409 11.5131C114.444 11.5131 114.023 10.8295 114.023 9.64465V9.14341L113.882 9.09777C113.882 9.09777 113.414 8.91553 112.853 8.91553C112.292 8.91553 111.824 9.09777 111.777 9.09777L111.637 9.14341V9.59909C111.684 12.1968 113.087 13.2905 116.409 13.2905Z" fill="#2A5C67"/>
<path d="M122.117 15.6147C121.462 15.6147 120.807 15.797 120.807 15.797H120.713L112.432 27.6915V15.8426L112.292 15.797C112.245 15.797 111.59 15.6147 110.841 15.6147C110.092 15.6147 109.39 15.797 109.343 15.797L109.203 15.8426V32.7044L109.343 32.75C109.39 32.75 109.998 32.9323 110.701 32.9323C111.356 32.9323 112.011 32.75 112.011 32.75H112.104L120.386 20.8556V32.75L120.526 32.7955C120.573 32.7955 121.228 32.9778 121.976 32.9778C122.725 32.9778 123.427 32.7955 123.427 32.7955L123.568 32.75V15.8882L123.427 15.8426C123.427 15.797 122.819 15.6147 122.117 15.6147Z" fill="#2A5C67"/>
<path d="M140.645 16.0703L140.832 15.8424L140.552 15.7513C140.505 15.7513 139.85 15.569 139.055 15.569C138.306 15.569 137.511 15.7513 137.511 15.7513H137.417L132.411 22.5416L130.586 23.0429V15.7513L130.446 15.7057C130.399 15.7057 129.744 15.5234 128.996 15.5234C128.2 15.5234 127.545 15.7057 127.498 15.7057L127.357 15.7513V32.6131L127.498 32.6587C127.545 32.6587 128.2 32.841 128.996 32.841C129.697 32.841 130.446 32.6587 130.446 32.6587L130.586 32.6131V25.4583L132.411 24.9569L137.745 32.6587L137.792 32.7043H137.885C137.932 32.7043 138.727 32.8865 139.429 32.8865C140.224 32.8865 140.926 32.7043 140.973 32.7043L141.254 32.6587L135.172 23.7265L140.645 16.0703Z" fill="#2A5C67"/>
<path d="M149.395 15.5234C144.716 15.5234 142.705 17.1185 142.705 20.7643V21.3111L142.845 21.3567C142.892 21.3567 143.547 21.539 144.248 21.539C144.95 21.539 145.605 21.3567 145.652 21.3567L145.792 21.3111V20.7643C145.792 18.5768 146.775 17.7565 149.395 17.7565C152.062 17.7565 153.091 18.6223 153.091 20.8554V22.5416L148.787 22.9974C144.389 23.453 142.424 24.9569 142.424 27.7824V28.2837C142.424 31.4738 144.061 33.0233 147.383 33.0233C150.471 33.0233 152.389 32.0662 153.138 31.6105V32.7499L153.278 32.7954C153.325 32.7954 153.98 32.9777 154.729 32.9777C155.478 32.9777 156.18 32.7954 156.18 32.7954L156.32 32.7499V20.901C156.32 17.2096 154.12 15.5234 149.395 15.5234ZM148.366 30.7446C146.4 30.7446 145.652 30.0611 145.652 28.2382V27.7368C145.652 26.5519 146.073 25.4583 149.302 25.1393L153.091 24.6835V29.1952C152.81 29.5142 151.407 30.7446 148.366 30.7446Z" fill="#2A5C67"/>
<path d="M28.8683 10.7386C31.7692 12.6526 34.5765 14.749 37.2902 16.9364C39.9572 14.43 42.9984 11.9234 46.5543 9.6904C44.4021 7.82193 41.548 6.68262 38.46 6.68262H22.084C24.3766 7.95862 26.6693 9.32584 28.8683 10.7386Z" fill="#E2E33C"/>
<path d="M59.5629 6.72803C50.6263 8.96107 44.0759 13.7006 37.4319 20.1263C37.1512 19.8529 36.8237 19.625 36.543 19.3972C38.4144 20.9922 40.1456 22.6784 41.7833 24.3646C45.5731 18.9415 51.5621 12.1967 60.2647 6.95589C60.0308 6.81917 59.8436 6.72803 59.5629 6.72803Z" fill="#2A5C67"/>
<path d="M23.1133 47.5608H32.1435C30.8334 43.0947 29.1022 38.8109 27.0435 34.7549C25.172 38.7653 23.8151 43.0947 23.1133 47.5608Z" fill="#E2BC34"/>
<path d="M41.7354 24.3647C40.0977 22.6785 38.3666 20.9923 36.495 19.3973C33.4538 16.8908 30.4593 14.6577 27.4648 12.7437C24.1429 10.5563 20.9612 8.73336 17.92 7.22943C17.7796 7.18386 17.6393 7.09271 17.5457 7.04714C17.1246 6.81928 16.7035 6.63699 16.2824 6.40913C11.8843 4.26722 7.11185 2.39874 2.15227 0.803711C1.59081 0.666989 1.07613 0.530272 0.60825 0.393555C0.327519 0.4847 0.140365 0.621417 0 0.894856C5.00636 3.67477 17.7796 11.1487 25.4062 19.2605C26.1548 20.0809 26.8566 20.8556 27.5116 21.5848C32.3308 27.0535 34.8106 30.9727 35.7932 32.75C35.8868 32.8412 36.0739 32.8867 36.2611 32.8867C36.4483 32.8867 36.6354 32.8412 36.729 32.75H36.8225C37.5243 31.2006 39.1152 28.1017 41.7354 24.3647Z" fill="#5A7D89"/>
<path d="M43.7475 25.7317C43.6539 25.8685 43.5604 26.0051 43.4668 26.1419C46.1337 29.1496 48.5668 32.2942 50.719 35.6665V35.621V18.7135C50.719 18.3034 50.6722 17.9388 50.6254 17.5742C47.6777 20.4453 45.4319 23.3619 43.7475 25.7317Z" fill="#C8C840"/>
<path d="M43.4656 26.0962C41.3133 29.1951 39.9097 31.8383 39.2078 33.2966C38.2253 35.0284 37.2895 35.6664 36.307 35.6664C34.7629 35.6664 33.1721 33.0231 33.1721 33.0231V33.0688C32.5639 32.0206 31.5814 30.5622 30.2244 28.6938C29.008 30.6078 27.9318 32.613 26.9961 34.7094C29.1016 38.7653 30.7859 43.0947 32.096 47.5152H38.4125C45.1968 47.5152 50.6711 42.1833 50.6711 35.5752C48.5655 32.294 46.1326 29.104 43.4656 26.0962Z" fill="#F6D330"/>
<path d="M25.6395 23.1341C24.9845 22.405 24.3295 21.6303 23.5809 20.8555C20.2589 17.3465 15.9543 13.9285 11.7434 10.9663C11.1819 11.6043 10.6672 12.2879 10.2461 13.0171C17.124 19.1694 22.7855 26.5521 26.9964 34.7551C27.9321 32.6588 29.0551 30.6992 30.2716 28.7396C29.0551 27.1445 27.5579 25.2761 25.6395 23.1341Z" fill="#FCE42E"/>
</g>
<defs>
<clipPath id="clip0_781_45187">
<rect width="157" height="48" fill="white"/>
</clipPath>
</defs>
</svg>
