<svg width="339" height="48" viewBox="0 0 339 48" fill="none" xmlns="http://www.w3.org/2000/svg">
<g clip-path="url(#clip0_781_45188)">
<path d="M41.6633 28.4728C41.6633 29.3759 40.1009 30.0575 38.1913 30.0234L3.47194 29.1715C1.56237 29.1715 0 28.8136 0 28.4728C0 28.1321 1.56237 27.8424 3.47194 27.7913L38.1913 26.9393C40.1703 26.8882 41.6633 27.5868 41.6633 28.4728ZM41.6633 19.4931C41.6633 18.607 40.1009 17.9084 38.1913 17.9595L3.47194 18.7433C1.56237 18.7433 0 19.1012 0 19.4249C0 19.7487 1.56237 20.0724 3.47194 20.1235L38.1913 20.9755C40.1703 21.0948 41.6633 20.4473 41.6633 19.4931ZM41.6633 23.9915C41.6633 23.1054 40.1009 22.4068 38.1913 22.4579L3.47194 23.2929C1.56237 23.2929 0 23.6507 0 23.9915C0 24.3323 1.56237 24.639 3.47194 24.6731L38.1913 25.5591C40.1703 25.5591 41.6633 24.8775 41.6633 23.9915ZM0 32.9712C0 33.312 1.56237 33.6187 3.47194 33.6699L10.7456 33.8573C12.6552 33.8573 14.2176 33.5165 14.2176 32.9712C14.2176 32.426 12.6552 32.0341 10.7456 32.0852L3.47194 32.2726C1.56237 32.3749 0 32.6305 0 32.9712ZM31.0565 31.6081C29.1469 31.6081 27.5845 32.2556 27.5845 32.9712C27.5845 33.6869 29.1469 34.3003 31.0565 34.3514L38.2608 34.5048C40.1703 34.5048 41.7327 33.8573 41.7327 32.9712C41.7327 32.0852 40.1703 31.3866 38.2608 31.4377L31.0565 31.6081ZM0 37.4867C0 37.8275 1.56237 38.1342 3.47194 38.1853L10.7456 38.3727C12.6552 38.3727 14.2176 38.0149 14.2176 37.4867C14.2176 36.9585 12.6552 36.5495 10.7456 36.6006L3.47194 36.771C1.56237 36.8222 0 37.1289 0 37.4867ZM31.0565 36.1065C29.1469 36.1065 27.5845 36.771 27.5845 37.4867C27.5845 38.2023 29.1469 38.8158 31.0565 38.8669L38.2608 39.0202C40.1703 39.0202 41.7327 38.3727 41.7327 37.4867C41.7327 36.6006 40.1703 35.902 38.2608 35.9531L31.0565 36.1065ZM0 41.951C0 42.2748 1.56237 42.5815 3.47194 42.6326L10.7456 42.82C12.6552 42.82 14.2176 42.4792 14.2176 41.951C14.2176 41.4228 12.6552 41.0309 10.7456 41.082L3.47194 41.2694C1.56237 41.3206 0 41.6273 0 41.951ZM31.0565 40.5879C29.1469 40.5879 27.5845 41.2524 27.5845 41.951C27.5845 42.6496 29.1469 43.263 31.0565 43.3142L38.2608 43.5016C40.1703 43.5016 41.7327 42.8541 41.7327 41.951C41.7327 41.0479 40.1703 40.3493 38.2608 40.4004L31.0565 40.5879ZM0 46.4494C0 46.7732 1.56237 47.0799 3.47194 47.131L10.7456 47.3014C12.6552 47.3014 14.2176 46.9606 14.2176 46.4494C14.2176 45.9382 12.6552 45.5293 10.7456 45.5804L3.47194 45.7678C1.56237 45.8019 0 46.1086 0 46.4494ZM31.0565 45.0692C29.1469 45.0692 27.5845 45.7338 27.5845 46.4494C27.5845 47.1651 29.1469 47.7614 31.0565 47.8126L38.2608 47.983C40.1703 47.983 41.7327 47.3355 41.7327 46.4494C41.7327 45.5634 40.1703 44.8477 38.2608 44.8988L31.0565 45.0692ZM0 1.53355C0 1.87433 1.56237 2.19808 3.47194 2.23216L10.7456 2.4196C12.6552 2.4196 14.2176 2.07881 14.2176 1.53355C14.2176 0.988285 12.6552 0.613419 10.7456 0.664537L3.47194 0.834931C1.56237 0.886049 0 1.2098 0 1.53355ZM31.0565 0.170394C29.1469 0.170394 27.5845 0.834931 27.5845 1.53355C27.5845 2.23216 29.1469 2.87966 31.0565 2.91374L38.2608 3.08413C40.1703 3.08413 41.7327 2.43663 41.7327 1.53355C41.7327 0.630458 40.1703 0 38.1913 0L31.0565 0.170394ZM0 6.03195C0 6.37274 1.56237 6.67945 3.47194 6.73056L10.7456 6.918C12.6552 6.918 14.2176 6.57721 14.2176 6.03195C14.2176 5.48669 12.6552 5.11182 10.7456 5.11182L3.47194 5.33333C1.56237 5.38445 0 5.7082 0 6.03195ZM31.0565 4.6688C29.1469 4.6688 27.5845 5.31629 27.5845 6.03195C27.5845 6.7476 29.1469 7.36102 31.0565 7.41214L38.2608 7.58253C40.1703 7.58253 41.7327 6.93504 41.7327 6.03195C41.7327 5.12886 40.1703 4.44728 38.2608 4.4984L31.0565 4.6688ZM0 10.5304C0 10.8711 1.56237 11.1778 3.47194 11.229L10.7456 11.4164C12.6552 11.4164 14.2176 11.0586 14.2176 10.5304C14.2176 10.0021 12.6552 9.59318 10.7456 9.6443L3.47194 9.83174C1.56237 9.88285 0 10.2236 0 10.5304ZM31.0565 9.15016C29.1469 9.15016 27.5845 9.8147 27.5845 10.5304C27.5845 11.246 29.1469 11.8594 31.0565 11.9105L38.1913 12.0639C40.1009 12.0639 41.6633 11.4164 41.6633 10.5304C41.6633 9.6443 40.1009 8.94569 38.1913 8.99681L31.0565 9.15016ZM0 15.0117C0 15.3355 1.56237 15.6422 3.47194 15.6933L10.7456 15.8807C12.6552 15.8807 14.2176 15.5399 14.2176 15.0117C14.2176 14.4835 12.6552 14.0916 10.7456 14.1427L3.47194 14.3301C1.56237 14.3813 0 14.688 0 15.0117ZM31.0565 13.6315C29.1469 13.6315 27.5845 14.2961 27.5845 14.9947C27.5845 15.6933 29.1469 16.3067 31.0565 16.3578L38.1913 16.5623C40.1009 16.5623 41.6633 15.9148 41.6633 15.0117C41.6633 14.1086 40.1009 13.41 38.1913 13.4611L31.0565 13.6315Z" fill="#2E3191"/>
<path d="M208.402 38.1C200.365 38.1 195.053 32.4259 195.053 23.8721C195.053 15.9829 200.261 9.69531 208.628 9.69531C215.259 9.69531 220.12 13.8188 220.571 19.4078H214.634C214.396 18.0129 213.636 16.7557 212.502 15.8826C211.368 15.0095 209.943 14.5834 208.506 14.6879C203.194 14.6879 201.146 19.3737 201.146 23.9062C201.146 29.4951 203.976 33.0734 208.437 33.0734C212.083 33.0734 214.253 30.9434 214.756 26.9903H220.78C220.155 33.6186 215.954 38.1 208.402 38.1Z" fill="#2E3191"/>
<path d="M247.601 15.3355H239.303V37.4867H233.21V15.3355H224.895V10.2236H247.601V15.3355Z" fill="#2E3191"/>
<path d="M265.602 10.3428C271.591 10.3428 275.74 13.0861 275.74 19.0669C275.74 25.0478 271.47 27.7059 265.915 27.7059H259.717V37.4865H253.711V10.3428H265.602ZM259.717 23.0201H265.099C267.824 23.0201 269.838 22.1511 269.838 19.1521C269.838 16.1532 267.824 15.216 265.151 15.216H259.717V23.0201Z" fill="#2E3191"/>
<path d="M308.516 23.9403C308.516 32.46 303.048 38.1 294.941 38.1C286.834 38.1 281.227 32.3748 281.227 23.9403C281.227 15.5058 286.66 9.69531 294.923 9.69531C303.187 9.69531 308.516 15.4546 308.516 23.9403ZM287.424 23.8551C287.424 29.6825 290.288 33.1926 294.993 33.2267C299.697 33.2608 302.388 29.6485 302.388 23.8551C302.388 18.0617 299.524 14.6027 294.906 14.6027C290.288 14.6027 287.424 18.198 287.424 23.8551Z" fill="#2E3191"/>
<path d="M339 37.4865H332.942V18.7431H332.82L322.405 37.4865H315.6V10.3427H321.658V29.0861H321.762L332.178 10.3427H339.018L339 37.4865ZM333.636 3.06689C333.636 6.98596 331.084 8.55358 327.317 8.55358C323.55 8.55358 320.998 6.98596 320.998 3.06689H323.168C323.516 4.77083 325.217 5.58873 327.317 5.58873C329.418 5.58873 331.119 4.82195 331.466 3.06689H333.636Z" fill="#2E3191"/>
<path d="M93.2212 37.4865H87.1626V25.7634H75.8788V37.4865H69.8203V10.3428H75.8788V20.5664H87.1626V10.3428H93.2212V37.4865Z" fill="#2E3191"/>
<path d="M127.524 23.9403C127.524 32.46 122.056 38.1 113.949 38.1C105.842 38.1 100.287 32.3748 100.287 23.9403C100.287 15.5058 105.721 9.69531 113.984 9.69531C122.247 9.69531 127.524 15.4546 127.524 23.9403ZM106.432 23.8551C106.432 29.6825 109.297 33.1926 113.984 33.2267C118.671 33.2608 121.396 29.6485 121.396 23.8551C121.396 18.0617 118.532 14.6027 113.914 14.6027C109.297 14.6027 106.432 18.198 106.432 23.8551Z" fill="#2E3191"/>
<path d="M146.551 10.3428C152.523 10.3428 156.672 13.0861 156.672 19.0669C156.672 25.0478 152.402 27.7059 146.864 27.7059H140.614V37.4865H134.643V10.3428H146.551ZM140.614 23.0201H146.013C148.721 23.0201 150.752 22.1511 150.752 19.1521C150.752 16.1532 148.721 15.216 146.048 15.216H140.614V23.0201Z" fill="#2E3191"/>
<path d="M182.573 44.4216V37.4865H165.039V44.4557H159.172V32.3747H161.272C164.519 28.1149 165.699 22.4407 165.699 14.4493V10.3428H185.35V32.3747H188.423V44.4045L182.573 44.4216ZM179.309 15.182H171.706V15.642C171.706 23.0712 170.456 28.0126 168.025 32.3918H179.309V15.182Z" fill="#2E3191"/>
</g>
<defs>
<clipPath id="clip0_781_45188">
<rect width="339" height="48" fill="white"/>
</clipPath>
</defs>
</svg>
