<svg width="216" height="48" viewBox="0 0 216 48" fill="none" xmlns="http://www.w3.org/2000/svg">
<g clip-path="url(#clip0_781_45190)">
<path fill-rule="evenodd" clip-rule="evenodd" d="M70.7401 46.1331C57.6451 45.7331 41.5801 42.9331 34.2901 41.0664C6.75011 33.9998 -6.07489 9.06644 40.5001 7.46644L41.0401 6.93311C-19.9799 6.93311 -5.26489 36.2664 33.8851 43.8664C45.9987 45.9933 58.3177 46.7537 70.6051 46.1331H70.7401Z" fill="black"/>
<path fill-rule="evenodd" clip-rule="evenodd" d="M194.805 19.2H204.12V19.7333C203.445 19.7333 203.04 19.8667 202.77 20.1333C202.095 20.4 201.825 20.9333 201.825 21.7333C201.825 22.2667 202.095 23.4667 202.77 25.0667L206.82 35.2L210.33 26.6667C211.14 24.5333 211.68 23.0667 211.68 22.1333C211.68 21.4667 211.41 20.8 211.005 20.5333C210.54 20.0619 209.915 19.777 209.25 19.7333V19.2H216.135V19.7333C215.614 19.8954 215.116 20.1193 214.65 20.4C214.245 20.5333 213.975 20.9333 213.705 21.3333C213.165 22 212.355 23.6 211.41 26L204.525 42.6667C203.715 44.6667 203.04 46 202.5 46.6667C202.096 47.1147 201.594 47.4672 201.034 47.698C200.473 47.9288 199.867 48.032 199.26 48C198.45 48 197.775 48 197.235 47.6C196.695 47.2 196.425 46.8 196.425 46.2667C196.425 45.8667 196.56 45.6 196.965 45.3333C197.235 45.0667 197.64 44.9333 198.045 44.9333L199.53 45.3333L200.61 45.7333H201.15C202.095 45.7333 202.905 45.0667 203.58 43.4667L204.255 41.6C204.66 40.9333 204.795 40.2667 204.795 39.8667C204.795 39.3333 204.525 38.2667 203.85 36.8L198.855 24.9333L198.18 23.3333C197.919 22.5567 197.604 21.7992 197.235 21.0667L196.425 20.1333L195.075 19.6V19.2H194.805ZM185.355 22.4C185.895 21.4667 186.57 20.6667 187.245 20.2667C188.595 19.2 189.945 18.8 191.7 18.8C192.78 18.8 193.455 18.9333 194.13 19.4667C194.535 19.8667 194.805 20.4 194.805 20.9333C194.805 21.4667 194.805 21.7333 194.4 22C194.13 22.2667 193.725 22.4 193.185 22.4C192.645 22.4 192.24 22.2667 191.835 21.7333L191.16 20.9333C190.485 20.4 189.81 20 189 20C187.92 20 187.11 20.6667 186.435 22.1333C185.736 23.9631 185.415 25.9124 185.49 27.8667V34.1333L185.76 36.5333C185.895 37.0667 186.165 37.4667 186.57 37.8667C186.975 38.1333 187.785 38.5333 189 38.8V39.2H178.47V38.8C179.415 38.6667 180.225 38.4 180.63 38.1333C181.035 38 181.305 37.6 181.575 37.0667C181.845 36.6667 181.845 36.1333 181.98 35.4667V22.9333C181.98 22.2667 181.71 21.7333 181.44 21.3333C181.209 20.9489 180.884 20.628 180.495 20.4C180.09 20.1333 179.55 20 178.74 20V19.6L184.95 18.6667L185.22 22.4H185.355ZM168.21 22.4C168.75 21.4667 169.56 20.6667 170.235 20.2667C171.585 19.2 172.935 18.8 174.69 18.8C175.77 18.8 176.445 18.9333 176.985 19.4667C177.525 19.8667 177.795 20.4 177.795 20.9333C177.795 21.4667 177.795 21.7333 177.39 22C177.12 22.2667 176.715 22.4 176.175 22.4C175.635 22.4 175.23 22.2667 174.825 21.7333L174.015 20.9333C173.475 20.4 172.665 20 171.99 20C170.91 20 170.1 20.6667 169.425 22.1333C168.726 23.9631 168.405 25.9124 168.48 27.8667V34.1333C168.48 35.2 168.48 36 168.75 36.5333C168.885 37.0667 169.155 37.4667 169.56 37.8667C169.965 38.1333 170.775 38.5333 171.99 38.8V39.2H161.46V38.8C162.405 38.6667 163.08 38.4 163.485 38.1333C163.89 38 164.295 37.6 164.565 37.0667L164.835 35.4667L164.97 32.2667V22.9333L164.295 21.3333C164.064 20.9489 163.739 20.628 163.35 20.4C162.945 20.1333 162.405 20 161.73 20V19.6L167.805 18.6667L168.21 22.4ZM154.845 25.4667C154.845 24 154.44 22.8 154.035 21.8667C153.63 21.0667 152.955 20.5333 152.28 20C151.605 19.6 150.93 19.3333 149.985 19.3333C148.635 19.3333 147.42 20 146.34 21.0667C145.395 22.2667 144.72 23.7333 144.585 25.4667H154.845ZM144.45 26.4V28.1333C144.45 29.4667 144.585 30.8 144.99 32.1333C145.395 33.4667 145.935 34.5333 146.61 35.4667C147.336 36.3633 148.262 37.0825 149.316 37.5681C150.369 38.0537 151.522 38.2928 152.685 38.2667C153.63 38.2667 154.305 38.1333 155.25 37.8667C155.925 37.6 156.6 37.2 157.14 36.6667C157.68 36.1333 158.22 35.3333 158.49 34L159.03 34.1333C158.625 36 157.68 37.4667 156.33 38.2667C154.98 39.3333 153.225 39.7333 150.93 39.7333C148.905 39.7333 147.285 39.4667 145.8 38.8C144.45 38.1333 143.1 37.2 142.29 36C140.94 34.1333 140.265 32 140.265 29.3333C140.265 25.8667 141.615 23.0667 144.18 20.9333C145.542 19.8459 147.174 19.1367 148.906 18.8789C150.638 18.6211 152.408 18.824 154.035 19.4667C155.393 20.0514 156.543 21.0241 157.337 22.2597C158.131 23.4953 158.532 24.9372 158.49 26.4H144.45ZM121.23 29.0667C121.23 30.6667 121.23 32.2667 121.5 33.7333L122.31 36.8C122.715 37.6 123.255 38.1333 123.93 38.6667C124.74 39.2 125.55 39.3333 126.495 39.3333C128.385 39.3333 130.005 38.4 131.355 36.6667C132.57 34.8 133.245 32.5333 133.245 29.6C133.245 28.1333 132.975 26.8 132.57 25.3333C132.165 24 131.49 22.9333 130.815 22C130.14 21.2 129.465 20.6667 128.79 20.2667C127.98 19.8667 127.305 19.6 126.495 19.6C125.685 19.6 124.74 19.8667 123.93 20.4C123.12 20.9333 122.58 21.7333 122.175 22.6667C121.422 24.7142 121.1 26.892 121.23 29.0667ZM121.23 21.7333C122.04 20.9333 122.58 20.4 123.255 20C124.47 19.2 125.955 18.6667 127.71 18.6667C130.053 18.6621 132.314 19.5174 134.055 21.0667C135.172 22.0713 136.044 23.3132 136.606 24.6989C137.167 26.0846 137.402 27.578 137.295 29.0667C137.365 30.5397 137.126 32.0111 136.591 33.3881C136.057 34.7651 135.239 36.0176 134.19 37.0667C132.249 38.8452 129.681 39.8024 127.035 39.7333C125.708 39.7949 124.38 39.6141 123.12 39.2L121.77 38.6667C121.474 38.5214 121.154 38.431 120.825 38.4C120.015 38.4 119.34 39.0667 118.665 40.4H117.72V12.4C117.72 10.8 117.45 9.46667 116.91 8.66667C116.37 8 115.425 7.6 114.21 7.6V7.06667L121.365 6V21.7333H121.23ZM98.5498 39.3333V32.6667H98.9548C99.3598 34.2667 100.035 35.6 100.71 36.6667C101.925 38.2667 103.41 39.3333 104.895 39.3333C105.897 39.3202 106.859 38.9401 107.595 38.2667C108.405 37.6 108.81 36.6667 108.81 35.4667C108.81 34.4 108.54 33.6 107.865 32.8L106.785 31.7333L104.22 30.4C102.195 29.3333 100.98 28.4 100.17 27.7333C99.2248 26.8 98.8198 25.6 98.8198 24.2667C98.8198 22.9333 99.2248 21.6 100.17 20.5333C101.385 19.4667 102.87 18.8 104.625 18.8C105.435 18.8 106.245 18.8 106.92 19.2L107.73 19.6H108.405C108.675 19.6 109.08 19.4667 109.35 18.9333H109.755L110.025 24.2667H109.62L109.08 22.5333L108.27 21.2C107.73 20.5333 107.19 20.1333 106.515 19.8667C105.912 19.4696 105.213 19.2394 104.49 19.2C103.68 19.2 102.87 19.6 102.195 20.2667C101.654 20.875 101.355 21.657 101.355 22.4667C101.355 23.2764 101.654 24.0584 102.195 24.6667C102.735 25.3333 103.545 26 104.76 26.4L107.325 27.6C108.81 28.2667 110.025 29.0667 110.7 30.1333C111.51 31.0667 111.78 32.2667 111.78 33.7333C111.801 34.5497 111.648 35.3614 111.333 36.1165C111.018 36.8715 110.547 37.5532 109.95 38.118C109.352 38.6828 108.642 39.1182 107.865 39.3963C107.087 39.6745 106.26 39.7893 105.435 39.7333C104.355 39.7333 103.275 39.6 102.195 39.2L100.98 38.6667H100.44C99.8998 38.6667 99.4948 38.8 99.0898 39.3333H98.5498ZM89.0998 39.7333L88.8298 36.8C87.925 37.7371 86.8352 38.481 85.6277 38.9855C84.4202 39.4901 83.1208 39.7446 81.8098 39.7333C79.7848 39.7333 78.1648 39.3333 76.9498 38.4C76.3665 37.9106 75.9049 37.2954 75.6006 36.6018C75.2964 35.9083 75.1575 35.155 75.1948 34.4V24L74.9248 21.7333C74.8327 21.2345 74.5985 20.772 74.2498 20.4C73.4768 19.9239 72.5944 19.6487 71.6848 19.6V19.0667H78.7048V31.0667C78.7048 32.8 78.7048 34 78.9748 34.8C78.9748 35.7333 79.2448 36.4 79.6498 36.8C79.9198 37.3333 80.4598 37.7333 81.1348 38.1333C81.8098 38.5333 82.4848 38.6667 83.4298 38.6667C84.2398 38.6667 85.0498 38.5333 85.8598 38C86.6698 37.7333 87.2098 37.2 87.7498 36.6667C88.1548 36 88.4248 35.3333 88.5598 34.5333C88.8298 33.7333 88.8298 32.4 88.8298 30.5333V24.1333C88.8298 23.0667 88.8298 22.2667 88.5598 21.8667C88.5598 21.3333 88.2898 20.9333 87.8848 20.5333C87.4798 20.2667 86.5348 19.8667 85.3198 19.7333V19.2H92.3398V32.1333L92.4748 35.4667C92.4748 36.1333 92.7448 36.6667 93.0148 37.0667C93.2848 37.6 93.5548 37.8667 93.9598 38C94.4998 38.2667 94.9048 38.4 95.7148 38.4V38.9333L89.0998 39.6V39.7333ZM51.0298 22.9333H51.8398C53.8648 22.9333 55.2148 22.9333 56.1598 22.6667C56.9698 22.4 57.7798 21.8667 58.5898 21.3333C59.409 20.5655 60.0503 19.6317 60.4697 18.596C60.8892 17.5604 61.0768 16.4474 61.0198 15.3333C61.0198 14.1333 60.7498 12.9333 60.2098 11.8667C59.7715 10.8592 59.1281 9.95157 58.3198 9.2C57.5098 8.53333 56.8348 8.26667 55.8898 7.86667L51.8398 7.6H50.8948V22.9333H51.0298ZM51.0298 23.4667V32C51.0298 33.6 51.0298 34.6667 51.2998 35.6C51.4348 36.4 51.8398 36.9333 52.2448 37.4667C52.7848 38 53.1898 38.2667 53.8648 38.5333C54.4048 38.8 55.2148 38.9333 56.0248 38.9333V39.4667H40.6348V38.9333C41.5798 38.9333 42.3898 38.8 42.9298 38.5333C43.5614 38.2791 44.1231 37.8808 44.569 37.3709C45.0148 36.8611 45.332 36.2542 45.4948 35.6L45.6298 34C48.5998 32.6667 49.2748 27.7333 48.3298 23.8667C47.9248 22 46.9798 20.4 45.6298 18.9333V10.6667C45.4536 9.99844 45.1159 9.38242 44.6456 8.87149C44.1754 8.36056 43.5865 7.97 42.9298 7.73333L40.7698 7.33333V6.8H56.0248C58.5898 6.93333 60.4798 7.33333 61.8298 7.86667C63.3105 8.41453 64.5843 9.39961 65.4781 10.6879C66.3718 11.9762 66.842 13.5051 66.8248 15.0667C66.8248 17.4667 65.8798 19.4667 63.9898 20.9333C63.4498 21.4667 62.7748 21.7333 62.0998 22L59.3998 22.9333L61.5598 24.1333L62.5048 25.3333L63.8548 28L67.0948 34.2667L68.8498 37.3333L70.1998 38.4C70.4698 38.5333 71.0098 38.8 71.5498 38.8V39.3333H63.5848L62.9098 37.7333L61.2898 34L58.0498 28C57.3556 26.7014 56.4425 25.5291 55.3498 24.5333C54.9448 24.1333 54.4048 24 53.9998 23.8667C53.3857 23.6898 52.7494 23.6 52.1098 23.6H51.0298V23.4667Z" fill="black"/>
<path d="M21.1948 20.1333C20.6548 20.5333 20.5198 21.3333 20.9248 21.8667C21.3298 22.4 22.1398 22.6667 22.6798 22.1333C23.3548 21.7333 23.4898 21.0667 23.0848 20.5333C22.9889 20.3828 22.8634 20.2527 22.7158 20.1508C22.5681 20.0489 22.4013 19.9772 22.2252 19.9399C22.0491 19.9026 21.8672 19.9005 21.6902 19.9337C21.5133 19.967 21.3448 20.0348 21.1948 20.1333ZM18.8998 16C18.3598 16 18.0898 16.4 18.0898 16.8C18.0898 17.3333 18.4948 17.6 18.8998 17.6C19.4398 17.6 19.8448 17.2 19.8448 16.8C19.8448 16.4 19.3048 16 18.8998 16ZM38.0698 28.9333C35.6398 28.1333 30.3748 28 26.5948 30.5333C32.3998 30.2667 36.1798 37.2 40.6348 37.6C45.3598 38 47.2498 31.4667 38.0698 28.9333ZM25.2448 24C24.0298 24.1333 23.2198 25.0667 23.2198 26.1333C23.2198 27.2 24.2998 28 25.6498 28C26.7298 28 27.6748 27.0667 27.5398 26C27.5398 24.9333 26.5948 24 25.3798 24.1333L25.2448 24Z" fill="#8DC04A"/>
<path d="M46.3052 23.0667C43.4702 16.1333 30.3752 13.6 27.2702 0C25.5974 3.64191 24.7887 7.61299 24.9056 11.6105C25.0226 15.6079 26.0622 19.5263 27.9452 23.0667C28.7552 24.5333 29.8352 26.4 30.7802 27.6C32.1302 27.2 33.6152 27.0667 35.2352 27.4667C28.3502 20.5333 26.5952 13.3333 27.5402 8.8C27.6752 11.3333 29.1602 18.4 34.4252 19.8667C45.6302 22.8 40.2302 27.0667 39.5552 28C42.3902 28.8 44.1452 29.8667 45.3602 32.2667C47.6552 29.4667 47.3852 25.4667 46.3052 23.0667Z" fill="#8DC04A"/>
</g>
<defs>
<clipPath id="clip0_781_45190">
<rect width="216" height="48" fill="white"/>
</clipPath>
</defs>
</svg>
