<svg width="538.000000" height="538.121094" viewBox="0 0 538 538.121" fill="none" xmlns="http://www.w3.org/2000/svg" xmlns:xlink="http://www.w3.org/1999/xlink">
	<desc>
			Created with Pixso.
	</desc>
	<defs/>
	<path id="Vector" d="M269 0C417.584 0 538 120.416 538 269C538 417.584 417.584 538 269 538C120.416 538 0 417.584 0 269C0 120.416 120.416 0 269 0ZM269 433.785C359.917 433.785 433.785 360.036 433.785 269C433.785 178.084 360.037 104.215 269 104.215C177.963 104.215 104.215 177.964 104.215 269C104.215 359.916 178.083 433.785 269 433.785Z" fill="#FFFFFF" fill-opacity="0.200000" fill-rule="nonzero"/>
	<path id="Vector" d="M269.002 0C290.522 0 311.316 2.53906 331.386 7.375C310.953 11.8477 290.4 18.377 270.21 27.2021C133.958 86.4424 62.2646 223.542 110.141 333.438C157.896 443.216 307.085 484.2 443.338 424.959C468.485 413.958 491.456 400.417 511.888 384.7C468.606 475.375 376.119 538.121 269.002 538.121C120.417 538.121 0.00195312 417.705 0.00195312 269.121C0.00195312 120.536 120.417 0 269.002 0Z" fill="#FFFFFF" fill-opacity="0.200000" fill-rule="nonzero"/>
	<path id="Vector" d="M247.48 447.691C396.064 447.691 516.48 327.275 516.48 178.691C516.48 173.25 516.238 167.81 515.997 162.369C530.142 195.012 538 231.161 538 269.002C538 417.587 417.584 538.002 269 538.002C125.855 538.002 8.94678 426.291 0.48291 285.324C41.8311 380.834 136.858 447.691 247.48 447.691Z" fill="#FFFFFF" fill-opacity="0.200000" fill-rule="nonzero"/>
</svg>
