<svg width="119" height="48" viewBox="0 0 119 48" fill="none" xmlns="http://www.w3.org/2000/svg">
<g clip-path="url(#clip0_781_45186)">
<path d="M8.80664 34.9031H11.0271V47.9998H8.80664V34.9031ZM107.903 24.8281H112.385L116.549 18.4583L119 14.7167L118.997 14.7131L119 14.7103L116.549 10.9701L112.385 4.59961H107.903L113.273 12.8092H99.3006L101.106 16.6278H113.267L107.903 24.8281Z" fill="#289548"/>
<path d="M101.103 25.6274L89.458 1.10131C89.445 1.07208 89.4262 1.04927 89.4124 1.01791C89.3805 0.958768 89.3449 0.901632 89.3058 0.846832C89.2726 0.797083 89.2366 0.749245 89.1978 0.703555C89.1156 0.605699 89.0246 0.515284 88.926 0.433396C88.8788 0.395869 88.8294 0.361118 88.7781 0.329324C88.7212 0.290618 88.6622 0.255156 88.6012 0.223113C88.5729 0.209932 88.546 0.194181 88.5207 0.176067C88.4925 0.163949 88.4642 0.161098 88.4424 0.14898C88.3779 0.124697 88.3123 0.103056 88.246 0.084113C88.1892 0.068324 88.1321 0.0533531 88.0749 0.0392052C88.0104 0.0256616 87.9444 0.019959 87.8828 0.0135436C87.8206 0.00510874 87.7579 0.000585017 87.695 0C87.6349 0 87.5747 0.00712822 87.5058 0.0128308C87.4406 0.0185334 87.3811 0.0256616 87.3181 0.0392052C87.2601 0.0491847 87.2014 0.0670053 87.1434 0.0819745C87.0745 0.101221 87.0129 0.123318 86.9505 0.151118C86.9237 0.160385 86.8955 0.163949 86.8694 0.175354C86.8411 0.190323 86.8179 0.210282 86.7918 0.223826C86.7287 0.254961 86.6682 0.290702 86.6106 0.330749C86.5591 0.364252 86.5127 0.401319 86.4663 0.433396C86.4177 0.473314 86.3721 0.518221 86.3249 0.563842C86.1855 0.698256 86.0688 0.853708 85.9792 1.02433C85.9647 1.0507 85.9436 1.07422 85.9313 1.10202L74.3079 25.6402C74.1403 25.9968 74.0881 26.3955 74.1585 26.7822C74.2289 27.1689 74.4185 27.525 74.7015 27.8023C74.9845 28.0796 75.3474 28.2647 75.7409 28.3325C76.1344 28.4003 76.5397 28.3476 76.9017 28.1814C77.3161 27.9905 77.6485 27.6618 77.8405 27.2533L87.6965 6.44248L92.5368 16.6394H87.6675C87.4087 16.6345 87.1515 16.6804 86.9109 16.7744C86.6703 16.8684 86.4512 17.0086 86.2664 17.1868C86.0816 17.3651 85.9348 17.5778 85.8346 17.8125C85.7344 18.0472 85.6828 18.2991 85.6828 18.5537C85.6828 18.8082 85.7344 19.0602 85.8346 19.2949C85.9348 19.5296 86.0816 19.7423 86.2664 19.9205C86.4512 20.0988 86.6703 20.239 86.9109 20.333C87.1515 20.427 87.4087 20.4729 87.6675 20.468H94.3549L97.575 27.2469C97.7934 27.707 98.1887 28.0629 98.674 28.2363C99.1592 28.4098 99.6947 28.3866 100.163 28.1718C100.63 27.957 100.992 27.5683 101.169 27.0911C101.345 26.614 101.322 26.0874 101.103 25.6274ZM17.1893 34.9033H18.8023L20.8415 40.8447L22.885 34.9033H24.4987V43.634H23.4454V35.9676L21.3837 41.9538H20.3007L18.2375 35.9676V43.634H17.1908V34.9033H17.1893ZM30.2125 34.9033H31.4434L34.4881 43.634H33.3637L32.6323 41.3936H29.0287L28.3023 43.634H27.1613L30.2125 34.9033ZM30.8258 36.0681L29.3556 40.4134H32.2995L30.8258 36.0681ZM37.1587 34.9033H38.615L42.1592 42.2069V34.9033H43.2052V43.634H41.7481L38.2047 36.3311V43.634H37.1587V34.9033ZM48.9205 34.9033H50.15L53.1961 43.634H52.0717L51.3403 41.3936H47.7367L47.0111 43.634H45.8686L48.9205 34.9033ZM49.5323 36.0681L48.0637 40.4134H51.0068L49.5323 36.0681ZM65.8684 34.9033H70.916V35.8977H66.95V38.4831H70.7551V39.4775H66.95V42.641H71.0161V43.6354H65.8684V34.9033ZM74.3 34.9033H75.9115L77.9514 40.8447L79.9971 34.9033H81.6086V43.634H80.556V35.9676L78.4936 41.9538H77.4113L75.3468 35.9676V43.634H74.3007L74.3 34.9033ZM85.2644 34.9033H90.3142V35.8977H86.346V38.4831H90.1518V39.4775H86.346V42.641H90.4135V43.6354H85.2637V34.9033H85.2644ZM93.6981 34.9033H95.1537L98.6986 42.2069V34.9033H99.7439V43.634H98.2876L94.7449 36.3311V43.634H93.6988L93.6981 34.9033ZM102.301 34.9033H109.057V35.8977H106.22V43.6347H105.139V35.897H102.301V34.9033ZM59.5457 39.0719V40.0428H61.313V42.3872C61.1028 42.522 60.8614 42.6203 60.6033 42.6938L60.591 42.6959C60.5627 42.7044 60.5359 42.7166 60.5076 42.7251C60.4511 42.7379 60.388 42.7444 60.3293 42.7536C60.3271 42.7558 60.325 42.7558 60.3228 42.7558L60.3083 42.7579C60.0352 42.8055 59.7585 42.8303 59.4812 42.832C58.5047 42.832 57.7718 42.5327 57.281 41.9375C56.7888 41.3401 56.5438 40.4555 56.5438 39.2779C56.5438 38.0968 56.7888 37.2086 57.281 36.612C57.7718 36.016 58.5047 35.7181 59.4812 35.7181C59.508 35.7181 59.5304 35.7252 59.558 35.7252C60.554 35.7402 61.4653 36.0503 62.1742 36.5578V35.5769C61.7772 35.304 61.3388 35.0947 60.8752 34.9568C60.394 34.8155 59.8942 34.7449 59.392 34.7472C58.1437 34.7472 57.1665 35.1457 56.4626 35.9433C55.7609 36.7396 55.4071 37.8516 55.4071 39.2786C55.4071 40.7014 55.7601 41.8106 56.4626 42.6082C57.1665 43.4052 58.1437 43.805 59.392 43.805C59.9395 43.8091 60.4839 43.7245 61.0035 43.5548C61.5035 43.392 61.9707 43.1442 62.3837 42.8228V39.0733H59.5457V39.0719ZM5.80371 24.5802H2.57999L2.06892 26.172H0L2.9613 17.4413H5.41733L8.37863 26.172H6.30173L5.80371 24.5802ZM3.09178 22.9628H5.28104L4.19221 19.4878L3.09178 22.9628ZM32.4612 17.2845C33.745 17.2845 34.7498 17.6858 35.4776 18.4892C36.2061 19.2925 36.5693 20.4002 36.5693 21.8159C36.5693 23.2266 36.2061 24.3336 35.4776 25.1362C34.7498 25.9396 33.745 26.3409 32.4612 26.3409C31.1795 26.3409 30.1748 25.9396 29.4463 25.1362C28.7163 24.3336 28.3516 23.2266 28.3516 21.8159C28.3516 20.4002 28.7163 19.2925 29.4463 18.4892C30.1748 17.6858 31.1795 17.2845 32.4612 17.2845ZM32.4612 18.9162C31.8334 18.9162 31.347 19.1685 31.0005 19.676C30.6525 20.1828 30.48 20.8957 30.48 21.8159C30.48 22.7319 30.6525 23.444 31.0005 23.9501C31.3477 24.4562 31.8334 24.7107 32.4612 24.7107C33.0912 24.7107 33.5798 24.4562 33.9263 23.9501C34.2735 23.444 34.4475 22.7319 34.4475 21.8159C34.4475 20.8957 34.2742 20.1828 33.9263 19.676C33.5798 19.1692 33.0904 18.9162 32.4612 18.9162ZM50.3051 17.442H52.6075L55.5796 23.2394L55.5137 22.8039V17.4428H57.4644V26.1734H55.165L52.2051 20.3439L52.2631 20.7453V26.1727H50.3058L50.3051 17.442ZM60.035 17.442H67.3966V19.1443H64.7499V26.1727H62.6867V19.1443H60.035V17.442ZM14.365 24.7306V24.7114H14.3621C13.6256 24.7114 13.0457 24.4526 12.6259 23.938C12.2055 23.424 11.9945 22.7155 11.9945 21.8159C11.9945 20.9106 12.2055 20.2007 12.6259 19.6874C13.0457 19.1728 13.6256 18.914 14.3621 18.914H14.365V18.8948C15.2356 18.8948 16.028 19.1343 16.6637 19.5213V17.9339C16.2905 17.7227 15.8915 17.5589 15.4763 17.4463C15.0584 17.3372 14.6278 17.2825 14.1954 17.2838C12.8644 17.2838 11.8089 17.6901 11.0333 18.502C10.2562 19.3146 9.86761 20.4181 9.86761 21.8152C9.86761 23.2066 10.2562 24.3087 11.0333 25.122C11.8082 25.9353 12.8637 26.3402 14.1954 26.3402C14.6405 26.3402 15.0675 26.2853 15.4763 26.177C15.8917 26.0655 16.2907 25.9022 16.6637 25.6908V24.1012C15.9722 24.5177 15.176 24.7358 14.365 24.7306ZM23.6078 24.7306V24.7114H23.6049C22.8669 24.7114 22.2891 24.4526 21.8687 23.938C21.4497 23.424 21.238 22.7155 21.238 21.8159C21.238 20.9106 21.4497 20.2007 21.8687 19.6874C22.2891 19.1728 22.8669 18.914 23.6049 18.914H23.6078V18.8948C24.4182 18.89 25.2141 19.107 25.9065 19.5213V17.9339C25.5336 17.7229 25.1351 17.5591 24.7205 17.4463C24.3019 17.3372 23.8705 17.2826 23.4374 17.2838C22.1064 17.2838 21.051 17.6901 20.2753 18.502C19.4982 19.3146 19.1103 20.4181 19.1103 21.8152C19.1103 23.2066 19.4982 24.3087 20.2753 25.122C21.051 25.9353 22.1064 26.3402 23.4374 26.3402C23.8705 26.3415 24.302 26.2866 24.7205 26.177C25.1353 26.0653 25.5338 25.9019 25.9065 25.6908V24.1012C25.2148 24.5175 24.4187 24.7355 23.6078 24.7306ZM39.6314 17.442H41.5959V22.6756C41.5959 23.397 41.709 23.9116 41.933 24.2224C42.1577 24.5325 42.7014 24.6879 43.2074 24.6879C43.7192 24.6879 44.2796 24.5318 44.5043 24.2224C44.729 23.9116 44.8407 23.397 44.8407 22.6756V17.442H46.7921V22.6756C46.7921 23.9116 46.4957 24.8297 45.9056 25.4342C45.314 26.0394 44.4151 26.3416 43.2081 26.3416C42.0019 26.3416 41.1051 26.0387 40.5158 25.4342C39.9279 24.8297 39.6321 23.9116 39.6321 22.6756V17.442H39.6314Z" fill="black"/>
</g>
<defs>
<clipPath id="clip0_781_45186">
<rect width="119" height="48" fill="white"/>
</clipPath>
</defs>
</svg>
